<svg id="Camada_2" data-name="Camada 2" xmlns="http://www.w3.org/2000/svg" width="226.891" height="210.38" viewBox="0 0 226.891 210.38">
  <defs>
    <style>
      .cls-1 {
        fill: #fff;
      }
    </style>
  </defs>
  <g id="Camada_1" data-name="Camada 1">
    <path id="Caminho_13" data-name="Caminho 13" class="cls-1" d="M.29,209.15V177.7h6.9a45,45,0,0,1,9.46.68,12.8,12.8,0,0,1,4.81,2.26A13.28,13.28,0,0,1,25.59,186,18.69,18.69,0,0,1,27,193.45a18.39,18.39,0,0,1-1.41,7.42,13.39,13.39,0,0,1-4.13,5.34,12.92,12.92,0,0,1-4.7,2.27,36.09,36.09,0,0,1-8.2.67Zm5.12-4.61H9.7a21.841,21.841,0,0,0,5.32-.48,7.61,7.61,0,0,0,3.08-1.59,9.47,9.47,0,0,0,2.68-3.79,16.08,16.08,0,0,0,0-10.55,9.54,9.54,0,0,0-2.68-3.79,8.05,8.05,0,0,0-3.19-1.59,26.1,26.1,0,0,0-5.81-.47H5.41Z"/>
    <path id="Caminho_14" data-name="Caminho 14" class="cls-1" d="M41.31,209.15V177.7H58.86V182H46.42v7.89H58.86v4.49H46.42v10.16H58.86v4.57Z"/>
    <path id="Caminho_15" data-name="Caminho 15" class="cls-1" d="M83.17,210.38l-14-32.68h5.31l7,16.76a25.114,25.114,0,0,1,1,2.7,22.683,22.683,0,0,1,.65,2.35,23.65,23.65,0,0,1,.71-2.45c.28-.85.62-1.71,1-2.6l7-16.76H97.2Z"/>
    <path id="Caminho_16" data-name="Caminho 16" class="cls-1" d="M108.82,209.15V177.7h6.9a45,45,0,0,1,9.46.68,12.8,12.8,0,0,1,4.81,2.26,13.28,13.28,0,0,1,4.13,5.35,18.69,18.69,0,0,1,1.41,7.46,18.39,18.39,0,0,1-1.41,7.42,13.39,13.39,0,0,1-4.13,5.34,12.84,12.84,0,0,1-4.7,2.27,36,36,0,0,1-8.19.67h-8.28Zm5.12-4.61h4.29a21.84,21.84,0,0,0,5.32-.48,7.61,7.61,0,0,0,3.08-1.59,9.47,9.47,0,0,0,2.68-3.79,16.08,16.08,0,0,0,0-10.55,9.54,9.54,0,0,0-2.68-3.79,8,8,0,0,0-3.19-1.59,26,26,0,0,0-5.81-.47h-3.69Z"/>
    <path id="Caminho_17" data-name="Caminho 17" class="cls-1" d="M169.84,209.15l-3.56-8.1H153.82l-3.65,8.1h-5.38L160,176.46l15.21,32.69ZM155.71,196.8h8.76l-3.22-7.17c-.19-.46-.38-1-.58-1.58s-.4-1.26-.6-2c-.17.69-.36,1.33-.55,1.92s-.39,1.14-.59,1.65Z"/>
    <path id="Caminho_18" data-name="Caminho 18" class="cls-1" d="M195.87,210.38l-14-32.68h5.3l7.05,16.76a25.116,25.116,0,0,1,1,2.7,22.684,22.684,0,0,1,.65,2.35,23.653,23.653,0,0,1,.71-2.45c.28-.85.62-1.71,1-2.6l7-16.76h5.29Z"/>
    <path id="Caminho_19" data-name="Caminho 19" class="cls-1" d="M221.61,209.15V177.7h5.11v31.45Z"/>
    <path id="Caminho_20" data-name="Caminho 20" class="cls-1" d="M226.89.17v101.4a55.19,55.19,0,0,1-4.39,21.84,58,58,0,0,1-12.05,18.07,56.19,56.19,0,0,1-61.62,12.18,56.562,56.562,0,0,1-30.25-74.05,55.94,55.94,0,0,1,12.18-17.82,58,58,0,0,1,18.07-12,55.19,55.19,0,0,1,21.84-4.39h33.88V.17ZM170.67,135.71a33.2,33.2,0,0,0,13.17-2.63,33.915,33.915,0,0,0,20.71-31.51V67.69H170.67a33.88,33.88,0,0,0-31.5,20.71,33,33,0,0,0-2.64,13.17,33.93,33.93,0,0,0,34.14,34.14Z"/>
    <path id="Caminho_21" data-name="Caminho 21" class="cls-1" d="M83.63,160.57H49L99.48,0h34.63Z"/>
    <path id="Caminho_22" data-name="Caminho 22" class="cls-1" d="M34.63,160.57H0L50.48,0H85.11Z"/>
  </g>
</svg>
